<?xml version="1.0" encoding="utf-8"?>
<!-- Generator: Adobe Illustrator 16.0.0, SVG Export Plug-In . SVG Version: 6.00 Build 0)  -->
<!DOCTYPE svg PUBLIC "-//W3C//DTD SVG 1.1//EN" "http://www.w3.org/Graphics/SVG/1.1/DTD/svg11.dtd">
<svg version="1.1" id="Layer_1" xmlns="http://www.w3.org/2000/svg" xmlns:xlink="http://www.w3.org/1999/xlink" x="0px" y="0px"
	 width="409.602px" height="382.292px" viewBox="0 0 409.602 382.292" enable-background="new 0 0 409.602 382.292"
	 xml:space="preserve">
<g>
	<defs>
		<rect id="SVGID_1_" width="409.602" height="382.292"/>
	</defs>
	<clipPath id="SVGID_2_">
		<use xlink:href="#SVGID_1_"  overflow="visible"/>
	</clipPath>
	<path clip-path="url(#SVGID_2_)" fill="#FFFFFF" d="M288.371,341.535c-3.66-0.927-7.363,1.312-8.273,4.964l-6.824,27.306
		c-0.922,3.668,1.309,7.366,4.969,8.28c0.551,0.145,1.113,0.207,1.66,0.207c3.059,0,5.836-2.069,6.613-5.168l6.828-27.309
		C294.258,346.156,292.031,342.453,288.371,341.535"/>
	<path clip-path="url(#SVGID_2_)" fill="#FFFFFF" d="M204.801,204.796c0.887,0,1.773-0.168,2.605-0.515l75.094-31.075
		c3.484-1.441,5.137-5.437,3.695-8.918c-1.441-3.488-5.449-5.128-8.922-3.699l-72.473,29.996L13.653,111.492v-2.266
		c0-3.77-3.059-6.828-6.825-6.828c-3.769,0-6.828,3.058-6.828,6.828v6.824c0,2.766,1.664,5.258,4.219,6.309l197.973,81.922
		C203.024,204.628,203.914,204.796,204.801,204.796"/>
	<path clip-path="url(#SVGID_2_)" fill="#FFFFFF" d="M286.012,274.738c-1.668-3.379-5.75-4.774-9.141-3.099
		c-12.965,6.41-34.621,13.863-65.242,14.879v-61.241c0-3.767-3.059-6.824-6.828-6.824c-3.769,0-6.828,3.058-6.828,6.824v61.183
		c-84.766-2.703-112.117-54.054-116.051-62.601v-46.368c0-3.77-3.058-6.829-6.828-6.829c-3.766,0-6.824,3.059-6.824,6.829v47.786
		c0,0.866,0.164,1.729,0.484,2.538c1.188,2.957,30.242,72.555,136.047,72.555c36.98,0,62.895-8.968,78.117-16.492
		C286.305,282.206,287.691,278.117,286.012,274.738"/>
	<path clip-path="url(#SVGID_2_)" fill="#FFFFFF" d="M307.199,348.16c-3.773,0-6.824,3.058-6.824,6.823v20.481
		c0,3.769,3.051,6.827,6.824,6.827c3.777,0,6.828-3.059,6.828-6.827v-20.481C314.027,351.218,310.977,348.16,307.199,348.16"/>
	<path clip-path="url(#SVGID_2_)" fill="#FFFFFF" d="M402.773,102.398c-3.773,0-6.828,3.058-6.828,6.828v2.25l-81.918,33.719
		v-12.336l91.355-37.809c2.551-1.051,4.219-3.543,4.219-6.305c0-2.765-1.668-5.25-4.211-6.308L207.406,0.515
		c-1.672-0.687-3.543-0.687-5.215,0L4.219,82.437C1.664,83.495,0,85.98,0,88.745c0,2.766,1.664,5.258,4.219,6.309l197.972,81.918
		c0.836,0.348,1.723,0.52,2.609,0.52s1.773-0.172,2.609-0.52l71.582-29.621c3.488-1.434,5.141-5.426,3.703-8.914
		c-1.441-3.484-5.438-5.129-8.918-3.695l-68.977,28.535L24.679,88.745L204.801,14.21l180.121,74.535l-78.379,32.434l-75.07-28.031
		c0.395-1.422,0.633-2.879,0.633-4.403c0-11.484-11.992-20.48-27.305-20.48s-27.305,8.996-27.305,20.48
		c0,11.481,11.992,20.481,27.305,20.481c6.832,0,12.93-1.867,17.668-4.867l77.906,29.086v168.183
		c-7.926,2.832-13.656,10.336-13.656,19.223c0,11.293,9.191,20.48,20.48,20.48c11.293,0,20.479-9.188,20.479-20.48
		c0-8.887-5.726-16.391-13.651-19.223v-38.746c19.598-14.797,26.625-34.496,26.93-35.371c0.246-0.715,0.375-1.473,0.375-2.229
		v-47.79c0-3.766-3.051-6.825-6.824-6.825c-3.777,0-6.829,3.059-6.829,6.825v46.527c-1.179,2.895-5.284,11.816-13.651,20.621v-84.68
		l91.348-37.593c2.559-1.051,4.227-3.551,4.227-6.317v-6.824C409.602,105.456,406.547,102.398,402.773,102.398 M204.801,95.57
		c-8.335,0-13.657-4.039-13.657-6.825c0-2.785,5.321-6.828,13.657-6.828c8.335,0,13.652,4.043,13.652,6.828
		C218.453,91.531,213.136,95.57,204.801,95.57 M307.199,327.679c-3.766,0-6.824-3.065-6.824-6.828c0-3.762,3.059-6.823,6.824-6.823
		c3.77,0,6.828,3.062,6.828,6.823C314.027,324.613,310.969,327.679,307.199,327.679"/>
	<path clip-path="url(#SVGID_2_)" fill="#FFFFFF" d="M334.301,346.499c-0.914-3.651-4.629-5.886-8.273-4.964
		c-3.66,0.914-5.883,4.621-4.969,8.281l6.828,27.308c0.777,3.099,3.555,5.167,6.613,5.167c0.547,0,1.105-0.061,1.66-0.207
		c3.66-0.914,5.883-4.611,4.969-8.28L334.301,346.499z"/>
</g>
</svg>
