<?xml version="1.0" encoding="utf-8"?>
<!-- Generator: Adobe Illustrator 16.0.0, SVG Export Plug-In . SVG Version: 6.00 Build 0)  -->
<!DOCTYPE svg PUBLIC "-//W3C//DTD SVG 1.1//EN" "http://www.w3.org/Graphics/SVG/1.1/DTD/svg11.dtd">
<svg version="1.1" id="Layer_1" xmlns="http://www.w3.org/2000/svg" xmlns:xlink="http://www.w3.org/1999/xlink" x="0px" y="0px"
	 width="409.599px" height="387.785px" viewBox="0 0 409.599 387.785" enable-background="new 0 0 409.599 387.785"
	 xml:space="preserve">
<g>
	<defs>
		<rect id="SVGID_1_" width="409.599" height="387.785"/>
	</defs>
	<clipPath id="SVGID_2_">
		<use xlink:href="#SVGID_1_"  overflow="visible"/>
	</clipPath>
	<path clip-path="url(#SVGID_2_)" fill="#FFFFFF" d="M364.946,149.82H202.309c-4.047,0-7.351,3.285-7.351,7.36
		c0,4.082,3.304,7.363,7.351,7.363h162.637c4.082,0,7.379-3.277,7.379-7.363C372.325,153.101,369.024,149.82,364.946,149.82"/>
	<path clip-path="url(#SVGID_2_)" fill="#FFFFFF" d="M372.325,190.777c0-4.074-3.302-7.371-7.379-7.371H202.309
		c-4.047,0-7.351,3.297-7.351,7.371c0,4.078,3.304,7.367,7.351,7.367h162.637C369.023,198.145,372.325,194.855,372.325,190.777"/>
	<path clip-path="url(#SVGID_2_)" fill="#FFFFFF" d="M202.309,217.02c-4.047,0-7.352,3.293-7.352,7.379
		c0,4.094,3.305,7.379,7.352,7.379H297.5c4.06,0,7.349-3.285,7.349-7.379c0-4.086-3.289-7.379-7.349-7.379H202.309z"/>
	<path clip-path="url(#SVGID_2_)" fill="#FFFFFF" d="M29.329,86.578c0.5-0.18,5.16-1.836,12.133-3.902v-2.981
		c0-5.465,4.437-9.91,9.922-9.91h7.105c-3.535-5.473-6.121-11.461-7.82-17.668c-14.903,0.395-26.93,12.566-26.93,27.578v10.082
		c0.82-0.547,1.59-1.117,2.543-1.601C26.927,87.715,27.942,87.082,29.329,86.578"/>
	<path clip-path="url(#SVGID_2_)" fill="#FFFFFF" d="M381.935,52.047H144.473c-1.68,6.226-4.269,12.254-7.828,17.738h245.301
		c5.465,0,9.922,4.441,9.922,9.91v197.446c0,5.448-4.434,9.913-9.922,9.913H156l1.422,17.723h224.524
		c15.25,0,27.652-12.375,27.652-27.636V79.695C409.59,64.43,397.196,52.047,381.935,52.047"/>
	<path clip-path="url(#SVGID_2_)" fill="#FFFFFF" d="M23.727,242.816v34.325c0,10.366,5.789,19.308,14.262,24.03l3.468-43.176
		v-37.272l-0.664,3.007C38.778,232.711,32.004,239.742,23.727,242.816"/>
	<path clip-path="url(#SVGID_2_)" fill="#FFFFFF" d="M97.559,81.918c20.637,0,37.363-23.918,37.363-44.555
		C134.922,16.726,118.184,0,97.559,0C76.938,0,60.196,16.742,60.196,37.363C60.196,58,76.918,81.918,97.559,81.918"/>
	<path clip-path="url(#SVGID_2_)" fill="#FFFFFF" d="M151.665,125.458c1.637,0.59,3.332,0.875,5,0.875h70.977
		c8.152,0,14.777-6.609,14.777-14.781c0-8.168-6.625-14.782-14.777-14.782h-68.481c-7.887-2.664-32.898-10.464-56.152-11.586
		l-3.477,6.95h-0.097l9.949,77.519L97.56,190.301l-11.813-20.649l9.949-77.519h-0.094l-3.511-7.047
		c-27.414,1.355-57.317,12.086-58.676,12.558c-0.477,0.184-0.809,0.563-1.285,0.786c-0.93,0.453-1.82,0.957-2.641,1.613
		c-0.738,0.574-1.359,1.18-1.961,1.859c-0.629,0.719-1.176,1.453-1.683,2.289c-0.473,0.86-0.852,1.731-1.172,2.684
		c-0.192,0.508-0.539,0.918-0.656,1.469L0.349,214.749c-1.75,7.967,3.257,15.853,11.222,17.618c1.098,0.254,2.164,0.359,3.235,0.359
		c6.765,0,12.875-4.691,14.418-11.574l21.832-98.199c1.504-0.461,3.254-0.969,5.133-1.504v100.879L44.403,368.634
		c-0.777,9.754,6.496,18.308,16.254,19.101c0.496,0.039,0.949,0.051,1.445,0.051c9.141,0,16.899-7.043,17.649-16.319l10.641-132.177
		c2.183,0.96,4.613,1.52,7.144,1.52c2.559,0,4.965-0.56,7.156-1.52l10.633,132.177c0.754,9.276,8.512,16.319,17.656,16.319
		c0.469,0,0.938-0.012,1.434-0.051c9.77-0.793,17.039-9.347,16.246-19.101l-11.758-146.282V121.477
		C146.442,123.613,151.524,125.418,151.665,125.458"/>
</g>
</svg>
