<?xml version="1.0" encoding="utf-8"?>
<!-- Generator: Adobe Illustrator 16.0.0, SVG Export Plug-In . SVG Version: 6.00 Build 0)  -->
<!DOCTYPE svg PUBLIC "-//W3C//DTD SVG 1.1//EN" "http://www.w3.org/Graphics/SVG/1.1/DTD/svg11.dtd">
<svg version="1.1" id="Layer_1" xmlns="http://www.w3.org/2000/svg" xmlns:xlink="http://www.w3.org/1999/xlink" x="0px" y="0px"
	 width="354.988px" height="409.602px" viewBox="0 0 354.988 409.602" enable-background="new 0 0 354.988 409.602"
	 xml:space="preserve">
<g>
	<defs>
		<rect id="SVGID_1_" width="354.988" height="409.602"/>
	</defs>
	<clipPath id="SVGID_2_">
		<use xlink:href="#SVGID_1_"  overflow="visible"/>
	</clipPath>
	<path clip-path="url(#SVGID_2_)" fill="#FFFFFF" d="M293.547,116.055C293.547,52.059,241.488,0,177.492,0
		C113.5,0,61.441,52.059,61.441,116.055c0,33.757,14.93,65.808,40.336,87.754c-3.816,3.729-6.203,8.901-6.203,14.644
		c0,5.263,2.055,10.024,5.324,13.652c-3.277,3.633-5.324,8.391-5.324,13.657c0,5.261,2.055,10.019,5.324,13.651
		c-3.277,3.633-5.324,8.392-5.324,13.652c0,8.887,5.727,16.399,13.652,19.223v49.043c0,1.836,0.75,3.552,2.016,4.813l-0.016,0.015
		l61.442,61.442c1.332,1.328,3.078,2,4.824,2c1.75,0,3.496-0.672,4.828-2l61.44-61.442l-0.015-0.015
		c1.262-1.262,2.015-2.978,2.015-4.813v-49.043c7.928-2.823,13.653-10.336,13.653-19.223c0-5.261-2.055-10.02-5.324-13.652
		c3.277-3.633,5.324-8.391,5.324-13.651c0-5.267-2.055-10.024-5.324-13.657c3.277-3.628,5.324-8.39,5.324-13.652
		c0-5.742-2.391-10.914-6.207-14.644C278.617,181.863,293.547,149.812,293.547,116.055 M177.492,393.121l-10.824-10.828h21.652
		L177.492,393.121z M201.973,368.641h-48.961l-26.242-26.25l9.766-6.504l16.687,11.125c2.297,1.53,5.278,1.53,7.575,0l16.695-11.125
		l16.691,11.125c2.293,1.53,5.277,1.53,7.57,0l16.699-11.125l9.762,6.511L201.973,368.641z M232.105,328.574L222.242,322
		c-2.293-1.526-5.277-1.526-7.57,0l-16.699,11.129L181.281,322c-2.293-1.526-5.277-1.526-7.57,0l-16.7,11.129L140.32,322
		c-2.293-1.526-5.273-1.526-7.57,0l-9.871,6.574v-35.027h109.226V328.574z M238.934,279.895H116.054
		c-3.761,0-6.828-3.067-6.828-6.829c0-3.761,3.067-6.828,6.828-6.828h122.879c3.762,0,6.827,3.067,6.827,6.828
		C245.761,276.828,242.695,279.895,238.934,279.895 M238.934,252.585H116.054c-3.761,0-6.828-3.062-6.828-6.823
		c0-3.763,3.067-6.828,6.828-6.828h122.879c3.762,0,6.827,3.065,6.827,6.828C245.761,249.523,242.695,252.585,238.934,252.585
		 M238.934,225.281H116.054c-3.761,0-6.828-3.065-6.828-6.828c0-3.762,3.067-6.828,6.828-6.828h122.852l0.082,0.017
		c3.734,0.026,6.772,3.065,6.772,6.812C245.761,222.215,242.695,225.281,238.934,225.281 M156.14,122.039
		c1.25,1.012,2.77,1.516,4.286,1.516c1.515,0,3.039-0.504,4.289-1.516c8.121-6.551,12.777-16.207,12.777-26.465
		c0-1.578-0.149-3.133-0.359-4.676c-0.062-0.445-0.145-0.875-0.227-1.32c-0.211-1.172-0.484-2.332-0.824-3.473
		c-0.11-0.382-0.207-0.765-0.328-1.14c-0.484-1.453-1.051-2.875-1.731-4.246c-0.121-0.246-0.269-0.477-0.402-0.731
		c-0.594-1.14-1.262-2.246-1.985-3.312c-0.125-0.184-0.21-0.387-0.343-0.571c3.996-1.324,8.418-1.324,12.414,0
		c-0.133,0.184-0.219,0.387-0.344,0.571c-0.723,1.074-1.387,2.172-1.984,3.312c-0.133,0.246-0.281,0.477-0.402,0.731
		c-0.676,1.371-1.25,2.797-1.73,4.246c-0.121,0.375-0.215,0.758-0.324,1.14c-0.336,1.141-0.609,2.301-0.829,3.473
		c-0.082,0.438-0.163,0.875-0.226,1.32c-0.223,1.543-0.375,3.098-0.375,4.676c0,10.258,4.656,19.914,12.781,26.465
		c1.25,1.012,2.77,1.516,4.285,1.516s3.039-0.504,4.289-1.516c8.125-6.551,12.777-16.207,12.777-26.465
		c0-1.578-0.148-3.133-0.359-4.676c-0.062-0.445-0.145-0.875-0.227-1.32c-0.211-1.172-0.484-2.332-0.824-3.473
		c-0.109-0.382-0.207-0.765-0.336-1.14c-0.484-1.453-1.051-2.875-1.727-4.246c-0.125-0.258-0.281-0.5-0.418-0.75
		c-0.586-1.129-1.242-2.215-1.953-3.27c-0.129-0.199-0.223-0.41-0.359-0.601c2-0.664,4.074-1.004,6.203-1.004
		c10.91,0,20.48,10.261,20.48,21.968c0,10.036-4.422,19.481-12.137,25.907l-26.363,21.976c-1.559,1.297-2.457,3.215-2.457,5.242
		v47.786H163.84v-47.786c0-2.027-0.902-3.945-2.457-5.242l-26.364-21.976c-7.715-6.43-12.14-15.871-12.14-25.907
		c0-11.707,9.57-21.968,20.48-21.968c2.125,0,4.207,0.34,6.199,1.004c-0.136,0.191-0.23,0.41-0.363,0.601
		c-0.715,1.055-1.363,2.141-1.949,3.27c-0.133,0.25-0.289,0.492-0.418,0.75c-0.676,1.371-1.242,2.793-1.727,4.246
		c-0.125,0.375-0.218,0.765-0.336,1.14c-0.332,1.141-0.605,2.301-0.824,3.473c-0.082,0.438-0.164,0.875-0.226,1.32
		c-0.204,1.543-0.356,3.098-0.356,4.676C143.359,105.832,148.015,115.488,156.14,122.039 M157.011,95.574
		c0-1.359,0.192-2.691,0.461-4c0.067-0.316,0.133-0.637,0.216-0.945c0.327-1.274,0.745-2.531,1.32-3.727
		c0.046-0.086,0.101-0.175,0.148-0.265c0.355-0.703,0.832-1.344,1.27-2.008c0.437,0.664,0.914,1.305,1.269,2.008
		c0.043,0.09,0.102,0.172,0.152,0.261c0.575,1.188,0.989,2.442,1.317,3.727c0.082,0.312,0.148,0.629,0.219,0.941
		c0.265,1.317,0.457,2.649,0.457,4.008c0,1.36-0.192,2.688-0.457,4c-0.071,0.313-0.137,0.633-0.219,0.942
		c-0.328,1.277-0.742,2.531-1.317,3.726c-0.043,0.09-0.101,0.18-0.152,0.266c-0.355,0.703-0.832,1.347-1.269,2.008
		c-0.438-0.661-0.915-1.305-1.27-2.008c-0.047-0.086-0.109-0.176-0.148-0.266c-0.575-1.195-0.993-2.449-1.32-3.726
		c-0.083-0.313-0.149-0.629-0.216-0.942C157.203,98.262,157.011,96.934,157.011,95.574 M191.148,95.574c0-1.359,0.188-2.691,0.457-4
		c0.066-0.316,0.137-0.637,0.219-0.945c0.324-1.274,0.742-2.531,1.316-3.727c0.048-0.086,0.102-0.175,0.148-0.265
		c0.355-0.703,0.836-1.344,1.27-2.008c0.438,0.664,0.918,1.305,1.27,2.008c0.043,0.09,0.105,0.172,0.152,0.261
		c0.574,1.188,0.987,2.442,1.316,3.727c0.082,0.312,0.152,0.629,0.219,0.941c0.266,1.317,0.457,2.649,0.457,4.008
		c0,1.36-0.191,2.688-0.457,4c-0.066,0.313-0.137,0.633-0.219,0.942c-0.329,1.277-0.742,2.531-1.316,3.726
		c-0.042,0.09-0.102,0.18-0.152,0.266c-0.352,0.703-0.832,1.347-1.27,2.008c-0.434-0.661-0.914-1.305-1.27-2.008
		c-0.047-0.086-0.109-0.176-0.148-0.266c-0.574-1.195-0.992-2.449-1.316-3.726c-0.082-0.313-0.152-0.629-0.219-0.942
		C191.336,98.262,191.148,96.934,191.148,95.574 M238.781,197.973h-33.98v-44.59l23.906-19.93
		c10.84-9.023,17.054-22.293,17.054-36.391c0-19.308-15.636-35.621-34.136-35.621c-6.059,0-11.871,1.664-17.086,4.758
		c-10.504-6.09-23.571-6.09-34.086,0c-5.223-3.094-11.031-4.758-17.094-4.758c-18.5,0-34.133,16.313-34.133,35.621
		c0,14.098,6.212,27.368,17.055,36.399l23.907,19.922v44.59h-33.985c-25.785-19.332-41.109-49.766-41.109-81.918
		c0-56.465,45.937-102.403,102.398-102.403c56.465,0,102.402,45.938,102.402,102.403
		C279.895,148.207,264.566,178.641,238.781,197.973"/>
	
		<rect x="281.057" y="13.667" transform="matrix(-0.7071 0.7071 -0.7071 -0.7071 527.2538 -177.4023)" clip-path="url(#SVGID_2_)" fill="#FFFFFF" width="38.619" height="13.653"/>
	
		<rect x="293.533" y="192.305" transform="matrix(-0.707 0.7072 -0.7072 -0.707 662.3688 148.7991)" clip-path="url(#SVGID_2_)" fill="#FFFFFF" width="13.653" height="38.619"/>
	<rect x="314.027" y="109.227" clip-path="url(#SVGID_2_)" fill="#FFFFFF" width="40.961" height="13.652"/>
	
		<rect x="47.787" y="1.175" transform="matrix(-0.7072 0.707 -0.707 -0.7072 107.7188 -3.641)" clip-path="url(#SVGID_2_)" fill="#FFFFFF" width="13.653" height="38.615"/>
	
		<rect x="35.304" y="204.795" transform="matrix(-0.7071 0.7071 -0.7071 -0.7071 242.8736 322.6402)" clip-path="url(#SVGID_2_)" fill="#FFFFFF" width="38.618" height="13.655"/>
	<rect y="109.227" clip-path="url(#SVGID_2_)" fill="#FFFFFF" width="40.961" height="13.652"/>
</g>
</svg>
