<?xml version="1.0" encoding="utf-8"?>
<!-- Generator: Adobe Illustrator 16.0.4, SVG Export Plug-In . SVG Version: 6.00 Build 0)  -->
<!DOCTYPE svg PUBLIC "-//W3C//DTD SVG 1.1//EN" "http://www.w3.org/Graphics/SVG/1.1/DTD/svg11.dtd">
<svg version="1.1" id="Layer_1" xmlns="http://www.w3.org/2000/svg" xmlns:xlink="http://www.w3.org/1999/xlink" x="0px" y="0px"
	 width="1074.578px" height="430.377px" viewBox="0 0 1074.578 430.377" enable-background="new 0 0 1074.578 430.377"
	 xml:space="preserve">
<g>
	<g>
		<path fill="#ffffff" d="M534.796,74.041c-1.399,1.7-2.199,3.6-2.199,6.899v90.789h-0.5c0,0-49.693-88.589-52.094-92.688
			c-1.699-2.9-3.599-4.899-6.099-6.399c-2.499-1.4-5.099-2.3-10.098-2.3h-16.398c-3.8,0-6.2,1.3-7.899,3.3
			c-1.4,1.699-2.2,3.6-2.2,6.898v128.685c0,3.3,0.8,5.199,2.2,6.899c1.699,1.999,4.099,3.299,7.899,3.299h9.298
			c3.799,0,6.2-1.3,7.899-3.299c1.4-1.7,2.2-3.6,2.2-6.899v-92.988h0.5c0,0,51.593,91.389,53.693,94.788
			c2.9,4.799,7.799,8.398,14.798,8.398h15.899c3.799,0,6.199-1.3,7.898-3.299c1.401-1.7,2.2-3.6,2.2-6.899V93.139h208.874
			c2.1,0,3.7-0.6,4.899-1.6c1.301-1.199,1.899-2.8,1.899-5.199v-8.799c0-2.399-0.599-4-1.899-5.199
			c-1.199-1-2.799-1.601-4.899-1.601H542.697C538.896,70.741,536.497,72.042,534.796,74.041 M625.987,108.437
			c-34.697,0-54.194,27.097-54.194,55.693c0,30.496,20.897,57.293,54.393,57.293c16.699,0,33.096-6.299,42.494-17.397
			c4.1-4.8,7.4-11.499,7.4-15.599c0-1.399-0.3-2.6-1.099-3.499c-0.801-1-2-1.601-4.1-1.601h-16.097c-3.202,0-5.401,1.2-7,3.6
			c-4.7,6.899-11.498,10.499-21.498,10.499c-14.999,0-24.697-11.398-25.397-23.896h69.592c3.099,0,5.299-0.7,6.799-2.2
			c1.699-1.6,2.5-3.899,2.5-8.199c0-13.098-4.1-26.696-12.7-37.095C658.282,115.536,644.883,108.437,625.987,108.437
			 M733.271,108.437c-27.397,0-45.393,12.999-45.393,33.796c0,7.399,2.699,13.399,7.098,18.099
			c5.1,5.499,12.398,9.299,22.998,11.998l22.896,5.798c6.299,1.602,11.899,3.5,11.899,9c0,8.499-8.998,11.398-18.598,11.398
			c-4.699,0-9.597-0.899-13.597-2.899c-2.801-1.399-5.2-3.399-6.901-6.1c-1.498-2.299-1.998-3.999-4.299-5.299
			c-1.4-0.8-3.099-0.9-5.398-0.9h-12.399c-2.699,0-4,0.8-4.9,1.9c-0.898,1.1-1.199,2.699-1.199,4.299c0,4,1.4,8.999,4.699,13.499
			c7.6,10.198,23.496,18.397,43.795,18.397c19.998,0,47.693-8.299,47.693-35.096c0-6.899-2-12.798-5.699-17.598
			c-4.699-6.1-11.397-10.299-22.797-13.198l-22.697-5.8c-9.398-2.399-13.799-4.099-13.799-9.898c0-5.6,5-10.099,16.598-10.099
			c6.801,0,13,1.5,16.998,5.699c3.301,3.5,2.701,5.3,5.301,6.699c1.599,0.8,3.398,0.8,6.199,0.8h11.297
			c1.801,0,3.101-0.3,4.099-1.399c0.801-0.9,1.301-2.3,1.301-4.6c0-5.199-3.399-11.898-9.397-16.998
			C761.069,113.036,748.471,108.437,733.271,108.437 M795.564,112.236h-5.6c-2.099,0-3.699,0.6-4.897,1.599
			c-1.301,1.201-1.901,2.801-1.901,5.201v6.898c0,2.4,0.6,4,1.901,5.199c1.199,1,2.799,1.601,4.897,1.601h5.6v49.893
			c0,12.799,3.5,20.798,9.998,27.197c6,5.899,13.799,9.599,27.396,9.599h8.5c2.1,0,3.7-0.6,4.899-1.6
			c1.301-1.199,2.099-2.8,2.099-5.199v-8.699c0-2.399-0.798-3.999-2.099-5.199c-1.199-1-2.799-1.6-4.899-1.6h-1.199
			c-5.4,0-9.1-1.4-11.6-3.8c-3-2.8-4.5-7.099-4.5-12.699v-47.893h18.2c2.099,0,3.699-0.601,4.897-1.601
			c1.301-1.199,1.901-2.799,1.901-5.199v-6.898c0-2.4-0.6-4-1.901-5.201c-1.199-0.999-2.799-1.599-4.897-1.599h-18.098V79.641
			c0-2.6-0.801-4.499-2-5.999c-1.5-1.8-3.6-2.9-6.699-2.9h-11.299c-3.1,0-5.199,1.101-6.699,2.9c-1.199,1.5-2,3.399-2,5.999V112.236
			z M856.757,210.52c0,2.602,0.799,4.502,1.998,6.003c1.5,1.802,3.6,2.901,6.699,2.901h11.899c3.099,0,5.199-1.1,6.699-2.901
			c1.201-1.501,2-3.401,2-6.003V79.646c0-2.601-0.799-4.502-2-6.003c-1.5-1.801-3.6-2.902-6.699-2.902h-11.899
			c-3.099,0-5.199,1.102-6.699,2.902c-1.199,1.501-1.998,3.402-1.998,6.003V210.52z M601.088,152.231
			c1.3-12.299,10.698-21.497,24.997-21.497c13.998,0,23.698,9.198,24.996,21.497H601.088z M994.339,93.139
			c2.1,0,3.699-0.6,4.899-1.6c1.3-1.199,1.9-2.8,1.9-5.199v-9.299c0-3.6-0.699-5.399-1.9-6.699c-1.1-1.2-2.899-1.899-4.899-1.899
			c-1.599,0-3.199,0.199-5.897,0.5l-79.791,7.898c-2.299,0.2-3.401,0.9-4.199,1.8c-0.901,1-1.301,2.3-1.301,4.1v5.199
			c0,2,0.399,2.9,1.101,3.699c0.899,1,2.2,1.5,3.998,1.5H994.339z M950.246,108.437c-34.697,0-54.193,27.097-54.193,55.693
			c0,30.496,20.897,57.293,54.393,57.293c16.697,0,33.095-6.299,42.494-17.397c4.099-4.8,7.4-11.499,7.4-15.599
			c0-1.399-0.301-2.6-1.101-3.499c-0.799-1-1.998-1.601-4.1-1.601h-16.098c-3.199,0-5.398,1.2-6.998,3.6
			c-4.699,6.899-11.5,10.499-21.498,10.499c-14.998,0-24.697-11.398-25.396-23.896h69.791c3.099,0,5.299-0.7,6.799-2.2
			c1.701-1.6,2.5-3.899,2.5-8.199c0-13.098-4.1-26.696-12.698-37.095C982.741,115.536,969.143,108.437,950.246,108.437
			 M925.348,152.231c1.301-12.299,10.699-21.497,24.998-21.497c13.998,0,23.697,9.198,24.996,21.497H925.348z"/>
		<path fill="#ffffff" d="M324.539,94.335c-25.88-38.61-48.629-51.619-55.029-57.742c-7.027-6.75-12.385-14.403-15.793-18.09
			C246.136,10.225,236.326,0,220.185,0c-15.584,0-25.879,10.155-29.219,18.923c-0.973,2.503-1.74,5.565-2.434,6.678
			c-1.532,2.507-8.417,14.261-11.271,18.922h12.871l-6.261,11.827c7.303-1.599,12.521-2.783,19.479-2.783
			c6.192,0,10.643,1.463,12.591,5.358c3.617,7.237,3.617,29.148,9.74,45.64c5.705,15.508,19.618,30.675,35.271,42.292
			c0.209,0.141,0.418,0.209,0.698,0.209c0.764,0,1.25-0.555,1.25-1.112c0-0.417-0.139-0.694-0.486-1.04
			c-13.081-13.082-23.724-27.55-29.428-43.41c-5.635-15.446-4.732-37.154-9.67-46.822c-3.271-6.4-10.226-8.069-16.628-8.069
			c-5.147,0-9.948,1.043-12.174,1.529l5.635-9.53h-9.531c2.017-3.546,4.104-6.817,5.149-8.768c0.903-1.669,1.251-3.756,2.365-6.605
			c3.618-9.116,11.618-14.89,22.053-14.89c13.08,0,20.732,8.419,28.314,16.836c3.48,3.895,9.184,12.034,15.792,18.09
			c4.522,4.173,13.15,8.833,26.436,22.541c7.653,7.928,16.559,18.224,25.95,31.999c33.602,49.184,55.655,92.525,67.969,126.335
			l-0.21,0.14c-35.271-23.931-65.81-46.543-90.439-74.438c-17.462-19.827-32.627-42.786-45.846-72.073
			c-0.904-1.948-1.668-3.757-2.504-5.636c-0.348-0.765-0.695-0.974-1.251-0.974c-0.697,0-1.184,0.488-1.184,1.184
			c0,0.764,0.348,2.435,1.115,5.774c7.024,30.332,26.504,57.53,47.306,80.142c20.731,22.473,44.174,41.812,63.445,55.865
			l15.027,42.993c0.348,1.044,0.765,2.156,0.765,3.199c0,0.768-0.209,1.393-0.695,1.81c-0.417,0.417-0.972,0.626-2.225,0.626h-4.522
			c-1.948,0-2.714-0.278-3.41-0.833c-0.694-0.557-1.182-1.394-1.53-2.368c-1.323-4.036-9.253-26.646-10.781-31.238
			c-0.281-0.832-0.768-1.109-1.324-1.109c-0.696,0-1.184,0.555-1.184,1.179c0,0.56,0.21,1.184,0.559,3.134
			c2.017,10.298,4.382,21.846,5.355,26.228c0.42,2.017,0.906,3.896,0.906,5.286c0,1.252-0.279,1.95-1.323,2.993l-4.661,4.729
			c-1.113,1.111-1.738,1.39-2.643,1.39c-1.113,0-2.02-0.764-2.436-2.71c-5.288-24.7-13.288-55.308-15.375-63.797
			c-0.486-1.877-0.833-2.92-1.947-2.92c-0.973,0-1.322,0.693-1.322,1.53c0,0.624,0.14,1.39,0.209,1.949
			c1.251,8.765,6.331,40.694,11.828,69.843c0.971,5.013,2.85,7.792,7.164,7.792c1.948,0,3.825-0.765,5.565-2.433
			c2.854-2.853,3.688-3.617,7.098-6.958c2.433-2.367,4.103-3.34,8.277-3.34h10.296c2.436,0,3.756-0.624,4.94-1.738
			c1.113-1.045,1.808-2.504,1.808-4.593c0-2.154-0.555-3.894-1.321-6.051c-2.644-7.096-11.132-31.099-13.636-37.847l0.208-0.138
			c8.698,6.608,21.357,15.025,26.924,15.025c1.739,0,2.783-0.764,2.783-3.479C394.455,219.489,373.168,166.823,324.539,94.335"/>
		<path fill="#ffffff" d="M85.71,13.495c1.46-3.2,4.661-5.425,8.487-5.425c5.218,0,9.392,4.035,9.392,9.392
			c0,3.128-1.462,5.845-3.757,7.513c0.486,1.811,0.833,3.409,0.833,4.938c0,5.846-3.478,9.949-9.878,12.107
			c-0.833,3.546-2.365,6.746-4.869,9.114c-4.175,4.034-8.419,4.034-8.419,5.702c0,0.906,0.628,1.462,2.367,1.462
			c7.721,0,15.304-4.312,16.21-11.478c7.374-2.507,11.825-9.951,11.825-15.862c0-1.531-0.139-2.851-0.766-4.103
			c2.02-1.951,4.384-5.29,4.384-10.229c0-4.312-1.878-8.694-5.218-11.895C103.38,1.877,99.274,0,94.475,0
			c-6.958,0-11.48,3.759-14.052,7.444c-7.585,0-17.394,8.419-17.394,20.452h-1.044c-0.695-4.173-5.007-6.958-8.626-7.167
			c-2.922-8.764-9.531-16.277-20.383-16.277c-1.252,0-2.783,0.069-4.106,0.279C25.671,1.806,22.124,0,17.183,0
			C7.723,0,0,7.584,0,17.182c0,5.985,2.713,10.09,7.863,13.707c0,0-0.07,0.764-0.07,1.112c0,7.652,8.347,19.618,20.73,19.618
			c0,1.947,2.436,4.592,5.149,5.079v0.975h-1.045c-17.042,0-24.278,8.21-24.278,13.704C3.269,73.466,0,79.098,0,84.315
			c0,10.367,7.584,17.741,17.602,17.741c3.338,0,6.747-1.32,9.113-3.132c1.738,0.626,3.965,0.974,6.261,0.974
			c4.799,0,10.157-1.667,13.915-7.167c0.556,0.072,1.042,0.072,1.597,0.072c6.124,0,11.41-4.037,14.193-9.322
			c0.696-1.319,0.973-2.363,0.973-3.132c0-0.764-0.347-1.39-1.111-1.39c-0.975,0-1.113,0.902-2.853,2.506
			c-3.896,3.548-9.879,4.869-16.001,4.869c-2.991,4.383-6.677,6.681-10.923,6.681c-3.13,0-5.563-0.838-8.069-2.507
			c-2.018,2.223-4.522,3.132-6.955,3.132c-5.497,0-9.393-3.826-9.393-9.395c0-3.896,2.503-7.375,5.982-8.695
			c0.627-6.889,8-11.549,17.185-11.549c1.18,0,2.364,0.068,3.617,0.208c1.39-2.223,4.73-4.59,9.46-5.217
			c0.975-0.139,1.739-0.208,2.298-0.486c0.556-0.278,0.833-0.834,0.833-1.463c0-0.554-0.208-1.042-0.764-1.39
			c-0.488-0.277-1.322-0.415-2.296-0.625c-4.384-0.834-9.601-3.55-12.244-10.157c-10.505,0-18.228-8.418-18.228-17.878v-0.628
			c-3.479-1.392-5.843-4.732-5.843-8.698c0-5.217,4.104-9.39,9.323-9.39c3.129,0,5.843,1.531,7.582,3.827
			c1.461-0.418,3.13-0.556,4.73-0.556c7.791,0,16.141,4.938,17.74,14.537c10.018,0.907,12.383,9.395,13.01,12.942
			c0.348,1.807,0.626,3.339,1.809,3.339c1.252,0,1.529-1.394,1.949-3.271c0.764-3.548,2.086-6.402,4.729-8.625
			C69.221,21.355,76.04,13.495,85.71,13.495"/>
		<path fill="#ffffff" d="M105.954,68.036c-3.271,4.662-5.635,6.959-13.08,15.724c-9.809,11.616-14.956,21.012-23.514,41.881
			c1.392-0.139,3.409-0.278,5.637-0.278c1.113,0,2.016,0,3.478,0.069l1.042-2.225c4.802-10.297,11.27-24.212,20.316-34.927
			l3.129-3.688c9.322-10.92,15.097-17.39,18.715-32.279c1.253-5.283,2.296-10.015,5.843-13.424c3.201-3.062,7.237-4.382,11.34-4.382
			c3.479,0,6.054,0.834,9.809,2.432c3.409,1.461,4.662,1.74,8.279,1.74c1.252,0,2.157-0.069,2.991-0.139l-4.869,6.539l6.608,4.659
			c-8.279,2.436-12.66,10.436-14.122,14.125c-0.278,0.766-0.417,1.25-0.417,1.741c0,0.557,0.277,1.11,1.114,1.11
			c0.904,0,1.598-0.693,2.781-2.086c4.036-4.871,7.236-8.212,22.122-12.872l-10.502-7.931l7.929-11.617h-7.443
			c-4.73,0-7.861-0.069-11.966-1.948c-5.567-2.573-8.417-3.685-13.358-3.685c-6.052,0-11.549,2.153-16.07,6.326
			c-5.218,4.801-6.818,11.203-8.695,18.23C111.588,56.56,109.85,62.543,105.954,68.036"/>
		<path fill="#ffffff" d="M121.954,115.412c-3.964,5.36-9.392,12.382-13.565,19.827c1.322,0.629,5.705,2.992,7.236,3.826
			c4.799-7.234,11.479-16.139,15.86-22.889c3.966-6.119,5.567-8.765,5.845-16.973c0.07-1.391,0.07-2.715,0.208-4.036
			c0.347-4.242,1.461-8.555,5.498-12.52c2.989-2.993,7.303-4.522,11.617-4.522c4.174,0,6.608,1.182,10.226,1.182
			c2.573,0,4.451-0.625,6.121-1.252l1.324-0.487l-3.202,7.657l7.514,3.055c-4.8,2.992-15.306,15.864-15.306,31.098
			c0,5.499,0.836,10.576,2.018,15.099c0.139,0.485,0.417,0.972,1.183,0.972c0.695,0,1.182-0.417,1.251-1.183l0.071-1.598
			c0.209-4.662,0.557-12.035,2.436-18.646c3.129-11.129,11.546-21.567,19.965-26.576l-11.965-5.216l5.147-12.592l-5.634,1.183
			c-3.409,0.694-5.914,1.319-8.906,1.319c-1.948,0-4.173-0.277-6.818-0.903c-2.017-0.486-4.175-0.902-7.234-0.902
			c-5.496,0-11.41,2.085-15.444,5.979c-7.375,7.028-7.792,14.612-8.279,21.36C128.494,106.647,126.825,108.875,121.954,115.412"/>
		<path fill="#ffffff" d="M300.468,119.655c-0.488-0.624-0.904-0.903-1.461-0.903c-0.836,0-1.252,0.557-1.252,1.18
			c0,0.979,0.694,2.162,2.434,5.085c5.287,8.972,11.826,18.016,19.897,26.506c8.696,9.252,18.922,17.876,29.846,25.598l3.407,2.368
			c0.488,0.349,0.836,0.557,1.253,0.557c0.695,0,1.183-0.695,1.183-1.255c0-0.348-0.139-0.696-0.559-1.045
			c-10.155-9.25-21.076-20.521-31.304-31.374C315.91,137.814,307.702,128.771,300.468,119.655"/>
		<path fill="#ffffff" d="M76.596,88.143c1.043-1.736,4.174-5.979,5.427-7.307c-5.358-10.85-14.124-21.216-17.95-25.319l-3.2,3.129
			C64.561,64.002,70.751,74.372,76.596,88.143"/>
		<path fill="#ffffff" d="M25.602,25.323c-0.628-0.559-0.767-0.904-0.767-1.321c0-0.487,0.349-1.043,1.115-1.043
			c0.277,0,0.555,0.069,0.904,0.208c5.148,2.086,9.531,4.521,13.426,7.515c3.27,2.502,6.471,5.564,9.6,9.25l-2.92,3.342
			C43.341,40.277,31.654,30.474,25.602,25.323"/>
		<path fill="#ffffff" d="M74.926,48.628l-3.756-2.295c2.434-5.775,5.425-11.061,8.974-15.026c2.504-2.854,4.868-5.15,7.513-7.443
			c0.626-0.486,0.974-0.904,1.599-0.904c0.697,0,1.184,0.556,1.184,1.112c0,0.278-0.139,0.624-0.418,1.042
			C85.78,31.722,77.5,44.802,74.926,48.628"/>
		<path fill="#ffffff" d="M27.759,80.907c-0.905,0.351-1.323,0.559-1.809,0.559c-0.766,0-1.115-0.63-1.115-1.116
			c0-0.487,0.209-0.764,0.697-1.183c8.556-6.678,16.07-9.319,26.435-11.061l1.253,4.175L27.759,80.907z"/>
		<path fill="#ffffff" d="M206.201,26.925c0-2.436,1.254-6.82,5.775-6.82c1.531,0,2.992,0.347,4.173,0.903
			c1.671,0.765,2.784,1.882,2.784,3.063c0,1.252-1.252,2.506-3.131,4.036c-1.948,1.597-4.45,3.061-6.47,3.061
			C206.899,31.168,206.201,28.869,206.201,26.925"/>
		<path fill="#ffffff" d="M135.589,47.237c0-2.991,1.81-6.263,5.288-6.263c1.531,0,3.338,0.625,4.661,1.881
			c0.766,0.693,1.114,1.458,1.114,2.225c0,1.672-1.601,3.27-3.479,4.382c-1.463,0.838-2.993,1.394-4.314,1.394
			C136.704,50.855,135.589,49.529,135.589,47.237"/>
		<path fill="#ffffff" d="M151.939,90.161c0-0.695,0.069-1.533,0.349-2.367c0.556-1.806,1.737-3.548,4.659-3.548
			c1.323,0,2.782,0.347,3.965,1.187c1.046,0.694,1.462,1.597,1.462,2.502c0,2.991-5.01,6.47-7.514,6.47
			C153.052,94.404,151.939,92.662,151.939,90.161"/>
		<path fill="#ffffff" d="M124.528,177.954c-9.391,0-13.567-4.452-13.567-10.084c0-9.882,17.324-19.55,32.907-25.532l4.035,5.218
			c-9.602,3.823-28.939,12.037-28.939,19.13c0,2.504,1.459,4.315,7.302,4.315c10.158,0,21.081-4.94,31.167-9.879
			c0.766-0.348,1.671-0.695,2.506-0.695c1.321,0,2.157,0.417,3.13,1.807l1.67,2.296
			C152.982,171.001,138.301,177.954,124.528,177.954"/>
		<path fill="#ffffff" d="M150.409,180.601c-9.183,5.146-18.715,8.556-27.131,8.556c-9.393,0-17.74-4.034-24.699-14.542
			c-2.921-4.451-5.218-10.016-8-14.954c-3.339-5.845-6.958-8.976-13.288-8.976c-5.774,0-11.409,2.368-17.392,4.94l0.278,1.321
			c0.488,2.153,1.322,3.688,3.339,3.688c0.906,0,1.81-0.414,2.296-0.555c3.339-1.048,5.775-1.952,9.184-1.952
			c5.218,0,7.721,3.065,11.271,10.577l1.32,2.784c-3.616,1.251-12.105,1.876-18.436,1.876h-2.99l0.487,2.992
			c0.209,1.251,0.695,2.293,1.739,2.785c1.251,0.626,3.06,0.695,6.192,0.695c7.93,0,13.704-0.975,17.043-1.812
			c8.558,12.734,20.315,17.603,31.656,17.603c9.669,0,19.479-3.548,28.871-8.694L150.409,180.601z"/>
		<path fill="#ffffff" d="M159.868,183.731l-1.668-6.403c14.332-7.721,27.41-13.91,48.28-15.93c0.419,8-0.139,18.09,5.775,18.09
			c5.426,0,17.252-13.986,30.888-31.515c1.253,1.183,3.27,2.434,5.078,3.827l-3.478,4.521
			c-13.288,17.114-24.629,31.722-33.948,31.722c-8.697,0-11.968-10.228-12.108-17.88
			C185.401,171.488,172.879,175.938,159.868,183.731"/>
		<path fill="#ffffff" d="M343.949,44.106c-5.427,0-6.958-2.994-6.958-7.237c0-8.762,5.496-21.354,8.974-28.521h-8.418
			c-4.382,8.486-21.637,35.689-30.956,46.961l5.354,5.771c5.01-5.562,10.507-15.024,16.489-24.349h1.112
			c0,0.487-0.069,1.043-0.069,1.533c0,7.861,4.035,13.701,13.984,13.701c6.124,0,15.722-3.06,24.767-6.119
			c7.513-2.572,14.399-5.22,17.808-6.192v-8.347c-3.896,1.181-11.826,4.243-20.035,7.094
			C357.375,41.392,348.887,44.106,343.949,44.106"/>
		<path fill="#ffffff" d="M362.522,69.358c8.348-3.544,23.306-9.531,31.933-12.66V48.21c-17.322,6.401-47.725,18.993-68.457,30.265
			c0.558,0.692,4.176,5.771,4.593,6.397c8.765-3.614,16.626-5.982,23.723-5.982c9.948,0,18.087,0,31.722-3.2v-6.4
			c-7.652,1.393-15.791,3.062-21.079,3.062c-3.129,0-4.035-0.42-4.035-1.461C360.922,70.265,361.341,69.848,362.522,69.358"/>
		<polygon fill="#ffffff" points="180.948,114.857 216.497,114.857 213.855,108.458 184.288,108.458 		"/>
		<path fill="#ffffff" d="M56.211,146.649c3.756,0,6.817-1.251,9.739-2.433c2.784-1.114,5.567-2.227,9.323-2.227
			c8.906,0,19.896,4.311,29.566,8.417c0.559,0.208,1.184,0.346,1.809,0.346c1.532,0,2.715-0.694,3.479-2.154l1.253-2.298
			c-10.645-6.189-27.618-12.8-36.454-12.8c-4.035,0-6.958,1.045-9.74,2.155c-3.132,1.256-5.844,2.575-8.695,2.575
			c-7.028,0-25.045-6.956-25.045-13.702c0-7.931,28.661-10.991,31.791-10.991l2.852-6.474c-20.799,0-45.567,7.306-45.567,16.976
			c0,2.782,1.601,4.177,1.601,6.747c0,3.479-1.601,5.846-1.601,9.742c0,2.573,1.531,5.842,3.34,8.696
			c1.948,2.99,4.243,4.938,4.243,7.443c0,1.877-1.251,4.105-1.251,8.486c0,9.391,5.356,15.1,15.791,26.299l2.088,2.223
			c-8.627,3.34-24.697,10.299-28.454,11.897C3.27,211.002,0,217.608,0,228.046c0,4.033,0,8.625,0.279,12.729h2.503
			c5.22,0,5.844-3.128,5.844-6.12c0-2.019-0.069-4.313-0.069-6.82c0.069-5.771,0.278-10.921,9.6-15.096
			c3.758-1.666,22.192-9.182,35.897-15.027c4.035-1.738,7.792-3.197,11.967-3.197c4.662,0,10.018,2.015,16.695,5.982
			c5.637,3.338,11.551,7.86,16.21,13.077l5.913-4.521c-5.077-5.981-12.105-11.341-19.129-15.515
			c-7.028-4.173-13.289-6.605-18.577-6.605c-2.295,0-4.173,0.416-5.774,0.834c-1.878,0.485-3.618,1.041-5.843,1.041
			c-2.574,0-4.73-0.625-7.862-4.243c-1.182-1.319-8.696-9.881-10.295-12.38c-0.766-1.184-2.157-3.55-2.157-6.336
			c0-1.18,0.209-2.569,0.904-3.823c6.469,5.007,14.471,8.069,24.211,9.253l-1.323-6.609c-13.983-3.686-28.871-16-28.871-23.928
			c0-1.676,0.418-2.857,1.045-4.317C36.593,141.434,49.324,146.649,56.211,146.649"/>
		<path fill="#ffffff" d="M156.322,147.904c8.764-6.193,17.809-6.887,25.114-6.887c4.383,0,9.53,0.624,14.956,1.32
			c4.383,0.555,8.348,0.972,13.079,0.972c9.532,0,19.133-3.476,23.307-5.287c1.181,1.461,3.198,3.411,4.799,4.801
			c-2.018,1.255-14.817,8.207-27.898,8.207c-5.774,0-11.269-0.692-15.999-1.319c-4.175-0.555-8.697-1.042-13.08-1.042
			c-4.799,0-14.469,1.39-20.452,4.242L156.322,147.904z"/>
		<path fill="#ffffff" d="M285.511,172.739c-10.436,21.984-26.298,37.984-42.577,47.236c-7.722,4.381-14.679,7.236-29.705,7.236
			H180.74c-11.618,0-18.922,1.529-24.626,2.991c-6.124,1.597-10.02,3.197-16.211,3.197c-9.182,0-17.671-4.521-21.775-8.834
			l7.653-6.05l-3.827-5.082c-2.225,1.603-29.426,21.708-35.132,26.229l-0.347-0.208c0.139-1.391,0.139-2.645,0.139-3.896
			c0-15.306-7.097-18.994-17.879-23.307l-7.305,4.312c14.818,4.939,18.506,8.905,18.506,19.967c0,8.767-3.132,12.243-7.653,14.889
			c-4.662,2.715-10.436,3.965-15.514,3.965c-2.156,0-3.132,0.417-3.897,1.183c-0.834,0.837-1.252,2.088-1.252,3.826v2.435h1.739
			c9.322,0,17.949-1.458,27.411-8.904l30.819-24.069c4.382,5.009,15.445,11.967,28.522,11.967c7.375,0,12.108-1.812,18.924-3.548
			c5.288-1.325,10.434-2.508,21.705-2.508h32.628c16.696,0,24.767-3.479,33.67-8.485c19.342-10.854,35.829-29.222,45.151-50.302
			C289.755,175.451,287.458,174.06,285.511,172.739"/>
		<path fill="#ffffff" d="M233.125,198.898c8.417-13.499,15.931-25.463,34.367-35.201c-1.948-1.185-4.731-2.992-6.192-3.965
			c-7.165,3.127-14.262,9.389-20.313,15.719c-13.914,14.469-12.664,22.818-27.342,28.454c-3.687,1.39-8.208,2.921-13.982,4.244
			c-3.41-10.507-11.966-20.939-21.01-20.939c-6.261,0-13.497,3.266-21.845,6.953c-9.808,4.316-18.784,9.254-21.636,11.132
			l3.827,5.151c2.92-1.604,11.339-5.777,19.758-9.395c7.305-3.132,13.913-5.703,18.365-5.703c7.165,0,11.826,8.141,14.401,14.677
			c-9.392,2.227-24.836,2.784-29.497,2.784c-2.158,0-2.922,0.347-3.687,0.973c-0.696,0.628-1.253,1.739-1.6,3.271l-0.556,2.367
			h5.007c26.018,0,50.578-4.104,66.369-13.706c2.226,0.628,4.174,1.045,6.68,1.045c9.042,0,18.365-4.942,24.209-9.464
			c2.087-1.599,2.574-3.062,2.574-4.66c0-0.764-0.07-1.459-0.14-2.159l-0.278-2.709c-8.347,6.605-15.305,11.549-23.93,11.549
			C235.143,199.315,234.029,199.175,233.125,198.898"/>
	</g>
	<g>
		<path fill="#ffffff" d="M1053.196,223.406c-11.834,0-21.515-9.675-21.515-21.513c0-11.83,9.681-21.504,21.515-21.504
			c11.827,0,21.382,9.674,21.382,21.504C1074.578,213.731,1065.023,223.406,1053.196,223.406 M1053.196,184.479
			c-9.569,0-17.419,7.854-17.419,17.415c0,9.56,7.85,17.528,17.419,17.528c9.556,0,17.406-7.969,17.406-17.528
			C1070.602,192.332,1062.752,184.479,1053.196,184.479 M1057.292,213.386c-1.139-3.3,0.448-9.555-4.208-9.555h-3.655v9.555h-5.236
			v-23.21h10.366c4.201,0,7.85,0.796,7.85,5.913c0,3.415-2.055,5.012-5.228,5.578c6.263,0.909,3.977,7.168,5.788,11.719H1057.292z
			 M1052.511,193.813h-3.082v6.486h3.306c2.384,0,4.327-0.335,4.327-3.295C1057.062,194.16,1054.895,193.813,1052.511,193.813"/>
	</g>
	<g>
		<g>
			<path fill="#ffffff" d="M38.226,406.632L73.6,317.333H83l35.621,89.299h-8.783l-9.523-24.119H55.912l-9.4,24.119H38.226z
				 M97.471,375.095l-19.296-50.341L58.51,375.095H97.471z"/>
			<path fill="#ffffff" d="M199.901,344.546h7.67c-0.249,4.202-0.618,9.149-0.618,13.973v37.229
				c0,12.365,0.618,25.355-13.111,31.791c-4.948,2.346-8.29,2.839-14.102,2.839c-11.254,0-24.612-3.833-24.612-16.696h8.039
				c0.866,7.422,9.649,9.896,17.563,9.896c9.647,0,18.552-6.804,18.8-17.192v-11.624h-0.248
				c-3.586,7.297-12.119,11.624-20.162,11.624c-18.675,0-26.714-14.222-26.714-31.29c0-16.825,7.544-32.41,26.467-32.41
				c9.03,0,15.461,4.331,20.409,11.504l0.248-0.493L199.901,344.546z M179.619,349.493c-13.481,0-19.171,13.604-19.171,24.983
				c0,11.376,5.814,25.106,19.418,25.106c14.224,0,19.666-13.238,19.666-25.359C199.532,362.352,192.977,349.493,179.619,349.493z"
				/>
			<path fill="#ffffff" d="M263.49,344.546h7.422v48.11c0,4.826,0.369,9.774,0.617,13.976h-7.67l-0.369-9.149l-0.249-0.252
				c-4.327,7.667-11.379,11.255-19.418,11.255c-20.282,0-21.89-17.931-21.89-25.107v-38.832h7.42v40.066
				c0,10.762,6.184,17.072,16.327,17.072c12.245,0,17.81-10.264,17.81-21.402V344.546z"/>
			<path fill="#ffffff" d="M307.782,342.685c11.75,0,21.646,4.09,22.634,17.197h-8.039c-0.74-7.794-7.668-10.389-15.334-10.389
				c-6.929,0-13.978,2.722-13.978,10.013c0,9.152,11.997,8.287,28.818,14.226c6.431,2.225,10.513,7.794,10.513,14.474
				c0,13.973-12.987,20.28-26.098,20.28c-10.759,0-23.13-5.068-23.377-18.801h8.039c0.619,9.278,8.782,12,17.192,12
				c7.915,0,16.205-3.709,16.205-12.365c0-8.908-9.773-10.389-19.667-12.617c-9.773-2.354-19.665-5.2-19.665-16.7
				C285.026,347.14,296.898,342.685,307.782,342.685z"/>
			<path fill="#ffffff" d="M350.714,351.343h-12.369v-6.797h12.369v-13.235l7.42-3.216v16.451h14.1v6.797h-14.1V392.9
				c-0.125,5.693,2.843,8.784,8.534,8.784c2.226,0,4.452-0.127,6.429-0.741v6.435c-2.348,0.614-5.068,1.107-7.542,1.107
				c-15.708,0-14.841-10.017-14.841-18.432V351.343z"/>
			<path fill="#ffffff" d="M436.431,375.587c0,16.327-9.152,32.898-28.941,32.898c-19.791,0-28.942-16.571-28.942-32.898
				c0-16.323,9.152-32.902,28.942-32.902C427.279,342.685,436.431,359.264,436.431,375.587z M407.49,349.493
				c-14.965,0-20.903,14.591-20.903,26.094c0,11.504,5.938,26.098,20.903,26.098c14.964,0,20.902-14.594,20.902-26.098
				C428.392,364.084,422.454,349.493,407.49,349.493z"/>
			<path fill="#ffffff" d="M518.205,363.591c-0.614-9.526-6.68-14.098-16.941-14.098c-11.379,0-18.431,11.872-18.431,25.971
				c0,14.221,7.052,26.221,18.431,26.221c9.647,0,16.327-5.938,16.941-14.474h8.039c-1.973,14.226-10.136,21.274-24.241,21.274
				c-18.548,0-27.208-15.95-27.208-32.898c0-16.815,9.274-32.902,27.706-32.902c12.738,0,23.13,7.671,23.744,20.906H518.205z"/>
			<path fill="#ffffff" d="M590.696,375.587c0,16.327-9.15,32.898-28.941,32.898c-19.791,0-28.941-16.571-28.941-32.898
				c0-16.323,9.15-32.902,28.941-32.902C581.545,342.685,590.696,359.264,590.696,375.587z M561.755,349.493
				c-14.963,0-20.902,14.591-20.902,26.094c0,11.504,5.938,26.098,20.902,26.098c14.967,0,20.901-14.594,20.901-26.098
				C582.656,364.084,576.722,349.493,561.755,349.493z"/>
			<path fill="#ffffff" d="M609.883,406.632h-7.421v-48.113c0-4.823-0.373-9.771-0.618-13.973h7.67l0.369,9.149l0.245,0.249
				c4.333-7.671,11.379-11.26,19.418-11.26c20.288,0,21.896,17.936,21.896,25.108v38.839h-7.421v-40.073
				c0-10.762-6.187-17.065-16.327-17.065c-12.245,0-17.811,10.264-17.811,21.395V406.632z"/>
			<path fill="#ffffff" d="M706.005,406.632h-7.418v-89.299h7.418V406.632z"/>
			<path fill="#ffffff" d="M757.463,362.846c-0.746-10.138-5.938-13.353-14.719-13.353c-7.794,0-14.225,2.342-15.216,10.758h-7.915
				c1.856-12.742,11.379-17.566,23.255-17.566c13.725,0,22.261,6.312,22.012,20.534v29.438c-0.124,4.826,0.373,9.774,0.622,13.976
				h-7.673l-0.246-9.149h-0.245l-0.373,0.859c-2.718,5.199-11.006,10.144-19.418,10.144c-11.502,0-20.656-7.049-20.656-19.166
				c0-8.416,5.072-14.843,12.493-17.938c8.288-3.589,19.045-2.351,28.079-2.844V362.846z M738.907,401.685
				c16.202,0,19.293-13.359,18.556-26.35c-10.517,0.38-32.533-1.604-32.533,13.984C724.93,397.724,731.365,401.685,738.907,401.685z
				"/>
			<path fill="#ffffff" d="M811.405,344.546l21.398,51.822l20.653-51.822h8.164l-24.614,62.086h-8.404l-25.36-62.086H811.405z"/>
			<path fill="#ffffff" d="M877.837,326.607h-8.66v-9.274h8.66V326.607z M877.216,344.546v62.086h-7.418v-62.086H877.216z"/>
			<path fill="#ffffff" d="M936.339,397.482l-0.249-0.497c-5.072,7.418-12.614,11.5-21.271,11.5c-18.428,0-25.48-17.559-25.48-33.15
				c0-16.071,7.052-32.65,25.48-32.65c8.284,0,16.944,3.962,21.271,11.26l0.249-0.249v-36.362h7.422v75.323
				c0,4.826,0.369,9.774,0.618,13.976h-7.667L936.339,397.482z M916.06,349.493c-14.105,0-18.68,13.11-18.68,24.983
				c0,11.503,3.34,27.208,17.562,27.208c16.203,0,21.15-13.479,21.15-27.581C936.091,361.489,930.53,349.493,916.06,349.493z"/>
			<path fill="#ffffff" d="M993.867,362.846c-0.742-10.138-5.938-13.353-14.715-13.353c-7.795,0-14.229,2.342-15.216,10.758h-7.915
				c1.856-12.742,11.379-17.566,23.251-17.566c13.729,0,22.265,6.312,22.017,20.534v29.438c-0.125,4.826,0.372,9.774,0.617,13.976
				h-7.67l-0.245-9.149h-0.248l-0.369,0.859c-2.719,5.199-11.01,10.144-19.418,10.144c-11.504,0-20.657-7.049-20.657-19.166
				c0-8.416,5.072-14.843,12.493-17.938c8.288-3.589,19.046-2.351,28.075-2.844V362.846z M975.315,401.685
				c16.202,0,19.294-13.359,18.552-26.35c-10.513,0.38-32.529-1.604-32.529,13.984C961.337,397.724,967.769,401.685,975.315,401.685
				z"/>
		</g>
	</g>
</g>
</svg>
